<?xml version="1.0" standalone="no"?>
<!DOCTYPE svg PUBLIC "-//W3C//DTD SVG 20010904//EN"
 "http://www.w3.org/TR/2001/REC-SVG-20010904/DTD/svg10.dtd">
<svg version="1.0" xmlns="http://www.w3.org/2000/svg"
 width="400.000000pt" height="400.000000pt" viewBox="0 0 400.000000 400.000000"
 preserveAspectRatio="xMidYMid meet">
<metadata>
Created by potrace 1.11, written by Peter Selinger 2001-2013
</metadata>
<g transform="translate(0.000000,400.000000) scale(0.100000,-0.100000)"
fill="#000000" stroke="none">
<path d="M879 3583 c-13 -17 -13 -17 6 -3 11 8 22 16 24 17 2 2 0 3 -6 3 -6 0
-17 -8 -24 -17z"/>
<path d="M931 3597 c2 -1 13 -9 24 -17 19 -14 19 -14 6 3 -7 9 -18 17 -24 17
-6 0 -8 -1 -6 -3z"/>
<path d="M960 3522 c0 -18 -45 -25 -72 -12 -22 11 -22 10 -4 -4 11 -9 27 -16
36 -16 22 0 57 26 47 36 -4 4 -7 2 -7 -4z"/>
<path d="M3300 3381 c0 -58 -14 -88 -26 -57 -9 23 -44 20 -44 -3 0 -28 24 -42
68 -40 l39 3 2 78 c2 73 1 78 -18 78 -19 0 -21 -6 -21 -59z"/>
<path d="M879 3303 c-11 -15 -11 -16 1 -5 25 22 68 15 84 -15 8 -16 15 -23 16
-18 0 6 -7 21 -16 33 -19 27 -66 30 -85 5z"/>
<path d="M870 3245 c0 -19 23 -35 50 -35 27 0 50 16 50 35 0 5 -5 2 -11 -7 -6
-11 -22 -18 -39 -18 -17 0 -33 7 -39 18 -6 9 -11 12 -11 7z"/>
<path d="M3254 3172 c-38 -25 -41 -112 -4 -132 10 -5 34 -10 54 -10 41 0 66
28 66 75 0 48 -25 75 -68 75 -20 0 -42 -4 -48 -8z m76 -37 c16 -19 5 -62 -19
-75 -37 -19 -70 47 -39 78 16 16 43 15 58 -3z"/>
<path d="M1533 3103 c280 -2 734 -2 1010 0 276 1 48 2 -508 2 -555 0 -781 -1
-502 -2z"/>
<path d="M879 3023 c-11 -15 -11 -16 1 -5 8 6 26 12 40 12 14 0 32 -6 40 -12
12 -11 12 -10 1 5 -7 9 -26 17 -41 17 -15 0 -34 -8 -41 -17z"/>
<path d="M956 2953 c-6 -14 -5 -15 5 -6 7 7 10 15 7 18 -3 3 -9 -2 -12 -12z"/>
<path d="M3180 2845 l0 -105 94 0 c115 0 126 9 126 105 0 96 -11 105 -126 105
l-94 0 0 -105z"/>
<path d="M908 2933 c6 -2 18 -2 25 0 6 3 1 5 -13 5 -14 0 -19 -2 -12 -5z"/>
<path d="M1533 2933 c280 -2 734 -2 1010 0 276 1 48 2 -508 2 -555 0 -781 -1
-502 -2z"/>
<path d="M1532 2763 c280 -2 736 -2 1015 0 280 1 51 2 -507 2 -558 0 -787 -1
-508 -2z"/>
<path d="M882 2748 c-7 -7 -12 -16 -12 -21 0 -5 7 -1 16 7 21 22 61 20 74 -3
14 -28 13 -38 -11 -62 -12 -12 -15 -19 -8 -17 8 3 20 16 28 30 13 23 13 29 -2
52 -19 28 -63 36 -85 14z"/>
<path d="M3189 2686 c-2 -2 -3 -47 -1 -100 l3 -96 84 0 c118 0 115 -3 115 94
0 50 -5 87 -12 94 -11 11 -178 18 -189 8z"/>
<path d="M882 2664 c10 -10 20 -16 22 -13 3 3 -5 11 -17 18 -21 13 -21 12 -5
-5z"/>
<path d="M1035 2591 c8 -13 2005 -13 2005 0 0 5 -383 9 -1006 9 -627 0 -1003
-4 -999 -9z"/>
<path d="M880 2455 c-19 -22 -8 -25 13 -3 9 10 13 18 8 18 -5 0 -14 -7 -21
-15z"/>
<path d="M950 2450 c11 -11 20 -25 20 -32 0 -6 3 -8 6 -5 8 8 -23 57 -36 57
-6 0 -1 -9 10 -20z"/>
<path d="M3184 2427 c-3 -8 -4 -54 -2 -103 l3 -89 91 -3 c117 -4 124 2 124
102 0 98 -9 106 -124 106 -63 0 -88 -4 -92 -13z"/>
<path d="M1543 2413 c280 -2 734 -2 1010 0 276 1 48 2 -508 2 -555 0 -781 -1
-502 -2z"/>
<path d="M956 2383 c-6 -14 -5 -15 5 -6 7 7 10 15 7 18 -3 3 -9 -2 -12 -12z"/>
<path d="M884 2376 c11 -9 29 -16 40 -15 17 1 16 2 -6 9 -14 4 -32 11 -40 15
-7 3 -4 -1 6 -9z"/>
<path d="M1542 2243 c280 -2 736 -2 1015 0 280 1 51 2 -507 2 -558 0 -787 -1
-508 -2z"/>
<path d="M908 2183 c6 -2 18 -2 25 0 6 3 1 5 -13 5 -14 0 -19 -2 -12 -5z"/>
<path d="M875 2169 c-4 -6 -5 -12 -2 -15 2 -3 7 2 10 11 7 17 1 20 -8 4z"/>
<path d="M956 2167 c3 -10 9 -15 12 -12 3 3 0 11 -7 18 -10 9 -11 8 -5 -6z"/>
<path d="M3220 2080 c0 -73 2 -80 20 -80 16 0 20 7 20 30 0 38 24 40 42 3 7
-16 23 -29 36 -31 26 -4 27 0 7 38 -9 18 -11 31 -5 35 14 9 13 58 -2 73 -7 7
-36 12 -65 12 l-53 0 0 -80z m88 33 c-2 -10 -13 -19 -26 -21 -17 -3 -22 2 -22
17 0 16 6 21 26 21 19 0 25 -5 22 -17z"/>
<path d="M954 2099 c-3 -6 -21 -9 -39 -7 -19 2 -31 0 -29 -4 9 -14 61 -9 74 7
7 8 10 15 7 15 -3 0 -9 -5 -13 -11z"/>
<path d="M1542 2073 c280 -2 736 -2 1015 0 280 1 51 2 -507 2 -558 0 -787 -1
-508 -2z"/>
<path d="M882 1898 c-7 -7 -12 -17 -12 -22 0 -6 5 -3 11 7 6 10 22 17 39 17
17 0 33 -7 39 -17 6 -10 11 -13 11 -7 0 18 -23 34 -50 34 -14 0 -31 -5 -38
-12z"/>
<path d="M1543 1903 c280 -2 734 -2 1010 0 276 1 48 2 -508 2 -555 0 -781 -1
-502 -2z"/>
<path d="M962 1836 c-7 -15 -21 -26 -39 -29 l-28 -4 27 -2 c19 -1 32 7 44 24
9 14 15 28 12 30 -3 3 -10 -6 -16 -19z"/>
<path d="M888 1619 c-10 -5 -18 -15 -18 -20 0 -6 7 -3 16 5 8 9 24 16 34 16
10 0 26 -7 34 -16 9 -8 16 -11 16 -5 0 12 -32 31 -52 31 -7 0 -21 -5 -30 -11z"/>
<path d="M970 1572 c0 -7 -9 -21 -20 -32 -11 -11 -16 -20 -10 -20 13 0 44 49
36 57 -3 3 -6 1 -6 -5z"/>
<path d="M1543 1553 c280 -2 734 -2 1010 0 276 1 48 2 -508 2 -555 0 -781 -1
-502 -2z"/>
<path d="M887 1529 c7 -7 15 -10 18 -7 3 3 -2 9 -12 12 -14 6 -15 5 -6 -5z"/>
<path d="M1543 1383 c280 -2 734 -2 1010 0 276 1 48 2 -508 2 -555 0 -781 -1
-502 -2z"/>
<path d="M908 1343 c6 -2 18 -2 25 0 6 3 1 5 -13 5 -14 0 -19 -2 -12 -5z"/>
<path d="M875 1329 c-4 -6 -5 -12 -2 -15 2 -3 7 2 10 11 7 17 1 20 -8 4z"/>
<path d="M956 1327 c3 -10 9 -15 12 -12 3 3 0 11 -7 18 -10 9 -11 8 -5 -6z"/>
<path d="M879 1258 c7 -10 26 -18 41 -18 15 0 34 8 41 18 11 14 11 15 -1 5 -8
-7 -26 -13 -40 -13 -14 0 -32 6 -40 13 -12 10 -12 9 -1 -5z"/>
<path d="M1543 1213 c280 -2 734 -2 1010 0 276 1 48 2 -508 2 -555 0 -781 -1
-502 -2z"/>
<path d="M879 1043 c-13 -16 -12 -17 4 -4 9 7 17 15 17 17 0 8 -8 3 -21 -13z"/>
<path d="M949 973 c-13 -16 -12 -17 4 -4 9 7 17 15 17 17 0 8 -8 3 -21 -13z"/>
<path d="M888 779 c-10 -5 -18 -15 -18 -20 0 -6 7 -3 16 5 8 9 24 16 34 16 10
0 26 -7 34 -16 9 -8 16 -11 16 -5 0 12 -32 31 -52 31 -7 0 -21 -5 -30 -11z"/>
<path d="M943 694 c-17 -12 -26 -13 -45 -4 -22 11 -22 10 -4 -4 26 -21 39 -20
61 4 21 24 18 25 -12 4z"/>
<path d="M1553 693 c280 -2 734 -2 1010 0 276 1 48 2 -508 2 -555 0 -781 -1
-502 -2z"/>
<path d="M1507 523 c254 -2 672 -2 930 0 257 1 50 2 -462 2 -511 0 -722 -1
-468 -2z"/>
</g>
</svg>
